<svg xmlns="http://www.w3.org/2000/svg" viewBox="0 0 99.2 99.2"><defs><style>.a,.b{fill:none;stroke:#7f1b1d;stroke-miterlimit:10;}.b{stroke-dasharray:8;}</style></defs><title>button</title><circle class="a" cx="49.6" cy="49.6" r="42.19"/><circle class="a" cx="49.6" cy="49.6" r="42.19"/><polygon class="a" points="33.49 88.52 10.68 65.73 10.68 33.47 33.49 10.68 65.75 10.68 88.52 33.47 88.52 65.73 65.75 88.52 33.49 88.52"/><line class="a" x1="42.73" y1="49.6" x2="7.48" y2="49.6"/><line class="a" x1="56.47" y1="49.6" x2="91.72" y2="49.6"/><line class="a" x1="44.79" y1="44.79" x2="12.37" y2="12.37"/><line class="a" x1="44.79" y1="54.42" x2="12.37" y2="86.84"/><line class="a" x1="54.42" y1="54.42" x2="86.84" y2="86.84"/><line class="a" x1="54.42" y1="44.79" x2="86.84" y2="12.36"/><line class="b" x1="79.51" y1="79.51" x2="79.51" y2="88.52"/><line class="b" x1="79.51" y1="79.51" x2="88.52" y2="79.51"/><line class="b" x1="19.69" y1="79.51" x2="10.68" y2="79.51"/><line class="b" x1="19.69" y1="79.51" x2="19.69" y2="88.52"/><line class="b" x1="79.51" y1="19.69" x2="79.51" y2="10.68"/><line class="b" x1="79.51" y1="19.69" x2="88.52" y2="19.69"/><line class="b" x1="19.69" y1="19.69" x2="10.68" y2="19.69"/><line class="b" x1="19.69" y1="19.69" x2="19.69" y2="10.68"/><circle class="a" cx="12.41" cy="12.4" r="0.81"/><circle class="a" cx="86.88" cy="12.4" r="0.81"/><circle class="a" cx="12.41" cy="86.72" r="0.81"/><circle class="a" cx="86.88" cy="86.72" r="0.81"/><line class="a" x1="49.6" y1="4.88" x2="49.6"/><line class="a" x1="45.71" y1="5.06" x2="45.28" y2="0.19"/><line class="a" x1="41.84" y1="5.57" x2="40.99" y2="0.76"/><line class="a" x1="38.03" y1="6.41" x2="36.77" y2="1.7"/><line class="a" x1="34.31" y1="7.59" x2="32.64" y2="3"/><line class="a" x1="30.71" y1="9.08" x2="28.64" y2="4.65"/><line class="a" x1="27.25" y1="10.88" x2="24.81" y2="6.65"/><line class="a" x1="53.5" y1="5.06" x2="53.93" y2="0.19"/><line class="a" x1="57.37" y1="5.57" x2="58.22" y2="0.76"/><line class="a" x1="61.18" y1="6.41" x2="62.44" y2="1.7"/><line class="a" x1="64.9" y1="7.59" x2="66.57" y2="3"/><line class="a" x1="68.5" y1="9.08" x2="70.56" y2="4.65"/><line class="a" x1="71.96" y1="10.88" x2="74.4" y2="6.65"/><line class="a" x1="49.6" y1="94.32" x2="49.6" y2="99.2"/><line class="a" x1="45.71" y1="94.14" x2="45.28" y2="99.01"/><line class="a" x1="41.84" y1="93.63" x2="40.99" y2="98.44"/><line class="a" x1="38.03" y1="92.79" x2="36.77" y2="97.51"/><line class="a" x1="34.31" y1="91.61" x2="32.64" y2="96.21"/><line class="a" x1="30.71" y1="90.12" x2="28.64" y2="94.55"/><line class="a" x1="27.25" y1="88.32" x2="24.81" y2="92.55"/><line class="a" x1="53.5" y1="94.14" x2="53.93" y2="99.01"/><line class="a" x1="57.37" y1="93.63" x2="58.22" y2="98.44"/><line class="a" x1="61.18" y1="92.79" x2="62.44" y2="97.51"/><line class="a" x1="64.9" y1="91.61" x2="66.57" y2="96.21"/><line class="a" x1="68.5" y1="90.12" x2="70.56" y2="94.55"/><line class="a" x1="71.96" y1="88.32" x2="74.4" y2="92.55"/><line class="a" x1="94.32" y1="49.6" x2="99.2" y2="49.6"/><line class="a" x1="94.14" y1="45.7" x2="99.01" y2="45.28"/><line class="a" x1="93.64" y1="41.84" x2="98.45" y2="40.99"/><line class="a" x1="92.79" y1="38.03" x2="97.51" y2="36.76"/><line class="a" x1="91.62" y1="34.31" x2="96.21" y2="32.64"/><line class="a" x1="90.13" y1="30.71" x2="94.55" y2="28.64"/><line class="a" x1="88.32" y1="27.25" x2="92.56" y2="24.8"/><line class="a" x1="94.14" y1="53.5" x2="99.01" y2="53.92"/><line class="a" x1="93.64" y1="57.37" x2="98.45" y2="58.21"/><line class="a" x1="92.79" y1="61.17" x2="97.51" y2="62.44"/><line class="a" x1="91.62" y1="64.89" x2="96.21" y2="66.56"/><line class="a" x1="90.13" y1="68.5" x2="94.55" y2="70.56"/><line class="a" x1="88.32" y1="71.96" x2="92.56" y2="74.4"/><line class="a" x1="4.88" y1="49.6" y2="49.6"/><line class="a" x1="5.06" y1="45.7" x2="0.2" y2="45.28"/><line class="a" x1="5.57" y1="41.84" x2="0.76" y2="40.99"/><line class="a" x1="6.42" y1="38.03" x2="1.7" y2="36.76"/><line class="a" x1="7.59" y1="34.31" x2="3" y2="32.64"/><line class="a" x1="9.08" y1="30.71" x2="4.66" y2="28.64"/><line class="a" x1="10.88" y1="27.25" x2="6.65" y2="24.8"/><line class="a" x1="5.06" y1="53.5" x2="0.2" y2="53.92"/><line class="a" x1="5.57" y1="57.37" x2="0.76" y2="58.21"/><line class="a" x1="6.42" y1="61.17" x2="1.7" y2="62.44"/><line class="a" x1="7.59" y1="64.89" x2="3" y2="66.56"/><line class="a" x1="9.08" y1="68.5" x2="4.66" y2="70.56"/><line class="a" x1="10.88" y1="71.96" x2="6.65" y2="74.4"/></svg>